<svg width="115" height="85" viewBox="0 0 115 85" fill="none" xmlns="http://www.w3.org/2000/svg">
<path d="M36.3806 85C29.3164 85 23.0371 83.3265 17.5427 79.9794C12.0484 76.6323 7.73136 71.7674 4.59172 65.3846C1.53057 58.924 0 51.2958 0 42.5C0 33.7042 1.53057 26.1149 4.59172 19.7321C7.73136 13.2715 12.0484 8.36768 17.5427 5.02061C23.0371 1.67354 29.3164 0 36.3806 0C43.3663 0 49.6063 1.67354 55.1007 5.02061C60.595 8.36768 64.8728 13.2715 67.9339 19.7321C71.0736 26.1149 72.6434 33.7042 72.6434 42.5C72.6434 51.2958 71.0736 58.924 67.9339 65.3846C64.8728 71.7674 60.595 76.6323 55.1007 79.9794C49.6063 83.3265 43.3663 85 36.3806 85ZM36.3806 66.0852C40.3051 66.0852 43.4055 64.217 45.6817 60.4808C48.0365 56.6667 49.2138 50.6731 49.2138 42.5C49.2138 34.3269 48.0365 28.3723 45.6817 24.636C43.4055 20.8219 40.3051 18.9148 36.3806 18.9148C32.3775 18.9148 29.1986 20.8219 26.8439 24.636C24.5677 28.3723 23.4296 34.3269 23.4296 42.5C23.4296 50.6731 24.5677 56.6667 26.8439 60.4808C29.1986 64.217 32.3775 66.0852 36.3806 66.0852Z" fill="#5A7DF8"/>
<path d="M115 1.63462V83.3654H91.6882V19.4986H76.3824V1.63462H115Z" fill="#5A7DF8"/>
</svg>
