<svg width="70" height="70" viewBox="0 0 70 70" fill="none" xmlns="http://www.w3.org/2000/svg">
<rect x="0.5" y="0.5" width="69" height="69" rx="4.5" stroke="white"/>
<rect x="3.5" y="3.5" width="63" height="63" rx="4.5" stroke="white" stroke-linejoin="round" stroke-dasharray="2 3"/>
<g clip-path="url(#clip0_63_30)">
<path d="M35.9878 35.4924H40.5471" stroke="white" stroke-miterlimit="10"/>
<path d="M38.2675 37.772V33.2128" stroke="white" stroke-miterlimit="10"/>
<path d="M47.8419 28.9575H54.8328" stroke="white" stroke-miterlimit="10"/>
<path d="M51.3374 32.4529V25.614" stroke="white" stroke-miterlimit="10"/>
<path d="M52.2492 40.9635H60" stroke="white" stroke-miterlimit="10"/>
<path d="M56.2006 44.7629V37.0122" stroke="white" stroke-miterlimit="10"/>
<path d="M44.8024 13.7599C43.2827 13.7599 41.9149 14.3678 41.003 15.2796C40.0912 16.1915 39.4833 17.5593 39.4833 19.079C39.4833 20.5988 40.0912 21.9666 41.003 22.8784C41.9149 23.7903 43.2827 24.3982 44.8024 24.3982C46.3222 24.3982 47.69 23.7903 48.6018 22.8784C49.5137 21.9666 50.1216 20.5988 50.1216 19.079C50.1216 17.5593 49.5137 16.1915 48.6018 15.2796C47.69 14.3678 46.3222 13.7599 44.8024 13.7599Z" stroke="white" stroke-miterlimit="10"/>
<path d="M44.8024 46.4347C43.2827 46.4347 41.9149 47.0426 41.003 47.9544C40.0912 48.8663 39.4833 50.2341 39.4833 51.7538C39.4833 53.2736 40.0912 54.6413 41.003 55.5532C41.9149 56.4651 43.2827 57.073 44.8024 57.073C46.3222 57.073 47.69 56.4651 48.6018 55.5532C49.5137 54.6413 50.1216 53.2736 50.1216 51.7538C50.1216 50.2341 49.5137 48.8663 48.6018 47.9544C47.69 47.0426 46.3222 46.4347 44.8024 46.4347Z" stroke="white" stroke-miterlimit="10"/>
<path d="M22.614 30.7812C21.0942 30.7812 19.7264 31.3891 18.8146 32.3009C17.9027 33.2128 17.2948 34.5806 17.2948 36.1003C17.2948 37.6201 17.9027 38.9878 18.8146 39.8997C19.7264 40.8116 21.0942 41.4195 22.614 41.4195C24.1337 41.4195 25.5015 40.8116 26.4134 39.8997C27.3252 38.9878 27.9331 37.6201 27.9331 36.1003C27.9331 34.5806 27.3252 33.2128 26.4134 32.3009C25.5015 31.3891 24.1337 30.7812 22.614 30.7812Z" stroke="white" stroke-miterlimit="10"/>
<path d="M41.6109 47.9544L27.7812 38.9879" stroke="white" stroke-miterlimit="10"/>
<path d="M41.155 22.4225L27.0213 32.4529" stroke="white" stroke-miterlimit="10"/>
<path d="M10 14.6718H23.8298" stroke="white" stroke-miterlimit="10"/>
<path d="M18.2067 18.3192H32.0365" stroke="white" stroke-miterlimit="10"/>
<path d="M41.459 14.6718H28.0851" stroke="white" stroke-miterlimit="10"/>
<path d="M15.7751 50.8419H34.772" stroke="white" stroke-miterlimit="10"/>
<path d="M10.9118 56.1611H24.5897" stroke="white" stroke-miterlimit="10"/>
<path d="M41.459 56.1611H28.0851" stroke="white" stroke-miterlimit="10"/>
</g>
<defs>
<clipPath id="clip0_63_30">
<rect width="50" height="44.9848" fill="white" transform="translate(10 13)"/>
</clipPath>
</defs>
</svg>
