<svg width="143" height="85" viewBox="0 0 143 85" fill="none" xmlns="http://www.w3.org/2000/svg">
<path d="M36.2855 85C29.2398 85 22.9769 83.3265 17.4969 79.9794C12.0169 76.6323 7.71117 71.7674 4.57973 65.3846C1.52658 58.924 0 51.2958 0 42.5C0 33.7042 1.52658 26.1149 4.57973 19.7321C7.71117 13.2715 12.0169 8.36768 17.4969 5.02061C22.9769 1.67354 29.2398 0 36.2855 0C43.253 0 49.4767 1.67354 54.9567 5.02061C60.4368 8.36768 64.7033 13.2715 67.7565 19.7321C70.8879 26.1149 72.4537 33.7042 72.4537 42.5C72.4537 51.2958 70.8879 58.924 67.7565 65.3846C64.7033 71.7674 60.4368 76.6323 54.9567 79.9794C49.4767 83.3265 43.253 85 36.2855 85ZM36.2855 66.0852C40.1998 66.0852 43.2921 64.217 45.5624 60.4808C47.911 56.6667 49.0853 50.6731 49.0853 42.5C49.0853 34.3269 47.911 28.3723 45.5624 24.636C43.2921 20.8219 40.1998 18.9148 36.2855 18.9148C32.293 18.9148 29.1224 20.8219 26.7738 24.636C24.5035 28.3723 23.3684 34.3269 23.3684 42.5C23.3684 50.6731 24.5035 56.6667 26.7738 60.4808C29.1224 64.217 32.293 66.0852 36.2855 66.0852Z" fill="#5A7DF8"/>
<path d="M143 65.0343V83.3654H79.0012V68.8874L109.768 40.2816C112.742 37.4794 114.739 35.1053 115.756 33.1593C116.774 31.1355 117.283 29.1117 117.283 27.0879C117.283 24.4414 116.383 22.3787 114.582 20.8997C112.782 19.4208 110.159 18.6813 106.714 18.6813C103.661 18.6813 100.843 19.3819 98.2596 20.783C95.7544 22.1062 93.6798 24.0522 92.0358 26.6209L74.7738 17.0467C77.9835 11.7537 82.485 7.58929 88.2781 4.55358C94.0713 1.51786 100.921 0 108.828 0C115.091 0 120.61 1.01191 125.386 3.03572C130.239 5.05953 133.997 7.97848 136.659 11.7926C139.399 15.5288 140.769 19.8878 140.769 24.8695C140.769 29.3063 139.79 33.5096 137.833 37.4794C135.954 41.3713 132.275 45.8082 126.795 50.7898L111.294 65.0343H143Z" fill="#5A7DF8"/>
</svg>
