<svg width="142" height="85" viewBox="0 0 142 85" fill="none" xmlns="http://www.w3.org/2000/svg">
<path d="M36.0783 85C29.0728 85 22.8457 83.3265 17.397 79.9794C11.9483 76.6323 7.66712 71.7674 4.55357 65.3846C1.51786 58.924 0 51.2958 0 42.5C0 33.7042 1.51786 26.1149 4.55357 19.7321C7.66712 13.2715 11.9483 8.36768 17.397 5.02061C22.8457 1.67354 29.0728 0 36.0783 0C43.006 0 49.1941 1.67354 54.6429 5.02061C60.0916 8.36768 64.3338 13.2715 67.3695 19.7321C70.4831 26.1149 72.0398 33.7042 72.0398 42.5C72.0398 51.2958 70.4831 58.924 67.3695 65.3846C64.3338 71.7674 60.0916 76.6323 54.6429 79.9794C49.1941 83.3265 43.006 85 36.0783 85ZM36.0783 66.0852C39.9702 66.0852 43.0449 64.217 45.3022 60.4808C47.6374 56.6667 48.8049 50.6731 48.8049 42.5C48.8049 34.3269 47.6374 28.3723 45.3022 24.636C43.0449 20.8219 39.9702 18.9148 36.0783 18.9148C32.1085 18.9148 28.956 20.8219 26.6209 24.636C24.3636 28.3723 23.2349 34.3269 23.2349 42.5C23.2349 50.6731 24.3636 56.6667 26.6209 60.4808C28.956 64.217 32.1085 66.0852 36.0783 66.0852Z" fill="#5A7DF8"/>
<path d="M120.705 34.3269C127.477 35.728 132.653 38.5302 136.234 42.7335C139.892 46.859 141.722 51.8796 141.722 57.7953C141.722 62.6213 140.398 67.0971 137.752 71.2225C135.183 75.348 131.213 78.6951 125.843 81.2637C120.55 83.7546 113.972 85 106.11 85C100.35 85 94.6292 84.2994 88.947 82.8983C83.3426 81.4973 78.4776 79.5124 74.3522 76.9437L82.7588 59.5467C85.9502 61.7262 89.5308 63.3997 93.5005 64.5673C97.5482 65.7349 101.518 66.3187 105.41 66.3187C109.38 66.3187 112.532 65.5792 114.867 64.1003C117.202 62.6213 118.37 60.5197 118.37 57.7953C118.37 52.5023 114.206 49.8558 105.877 49.8558H96.186V35.261L110.781 19.4986H78.5555V1.63462H137.635V16.1126L120.705 34.3269Z" fill="#5A7DF8"/>
</svg>
