<svg width="142" height="85" viewBox="0 0 142 85" fill="none" xmlns="http://www.w3.org/2000/svg"><path d="M36.078 85c-7.005 0-13.232-1.674-18.681-5.02-5.449-3.348-9.73-8.213-12.843-14.595C1.518 58.924 0 51.295 0 42.5c0-8.796 1.518-16.385 4.554-22.768 3.113-6.46 7.394-11.364 12.843-14.711C22.846 1.674 29.073 0 36.078 0c6.928 0 13.116 1.674 18.565 5.02 5.449 3.348 9.69 8.252 12.727 14.712 3.113 6.383 4.67 13.972 4.67 22.768 0 8.796-1.557 16.424-4.67 22.885-3.036 6.382-7.278 11.247-12.727 14.594C49.194 83.326 43.006 85 36.078 85zm0-18.915c3.892 0 6.967-1.868 9.224-5.604 2.335-3.814 3.503-9.808 3.503-17.981 0-8.173-1.168-14.128-3.503-17.864-2.257-3.814-5.332-5.721-9.224-5.721-3.97 0-7.122 1.907-9.457 5.721-2.257 3.736-3.386 9.69-3.386 17.864 0 8.173 1.129 14.167 3.386 17.98 2.335 3.737 5.488 5.605 9.457 5.605zm84.627-31.758c6.772 1.401 11.948 4.203 15.529 8.407 3.658 4.125 5.488 9.146 5.488 15.061 0 4.826-1.324 9.302-3.97 13.427-2.569 4.126-6.539 7.473-11.909 10.042C120.55 83.754 113.972 85 106.11 85a71.4 71.4 0 01-17.163-2.102c-5.604-1.4-10.47-3.386-14.595-5.954l8.407-17.397c3.191 2.18 6.772 3.853 10.742 5.02 4.047 1.168 8.017 1.752 11.909 1.752 3.97 0 7.122-.74 9.457-2.219 2.335-1.479 3.503-3.58 3.503-6.305 0-5.293-4.164-7.94-12.493-7.94h-9.691V35.262L110.781 19.5H78.555V1.635h59.08v14.478l-16.93 18.214z" fill="#5A7DF8"/></svg>