<svg width="20" height="20" viewBox="0 0 20 20" fill="none" xmlns="http://www.w3.org/2000/svg">
<path d="M1.9 2H18.1C18.3387 2 18.5676 2.09482 18.7364 2.2636C18.9052 2.43239 19 2.66131 19 2.9V17.3C19 17.5387 18.9052 17.7676 18.7364 17.9364C18.5676 18.1052 18.3387 18.2 18.1 18.2H1.9C1.66131 18.2 1.43239 18.1052 1.2636 17.9364C1.09482 17.7676 1 17.5387 1 17.3V2.9C1 2.66131 1.09482 2.43239 1.2636 2.2636C1.43239 2.09482 1.66131 2 1.9 2ZM10.054 9.8147L4.2832 4.9142L3.1177 6.2858L10.0657 12.1853L16.8886 6.2813L15.7114 4.9196L10.0549 9.8147H10.054Z" fill="#5A7DF8"/>
</svg>
