<svg width="20" height="20" viewBox="0 0 20 20" fill="none" xmlns="http://www.w3.org/2000/svg">
<path d="M10 1.00049C12.4453 1.00049 12.7504 1.00949 13.7098 1.05449C14.6683 1.09949 15.3208 1.24979 15.895 1.47299C16.489 1.70159 16.9894 2.01119 17.4898 2.51069C17.9474 2.96059 18.3016 3.50482 18.5275 4.10549C18.7498 4.67879 18.901 5.33219 18.946 6.29069C18.9883 7.25009 19 7.55519 19 10.0005C19 12.4458 18.991 12.7509 18.946 13.7103C18.901 14.6688 18.7498 15.3213 18.5275 15.8955C18.3022 16.4965 17.948 17.0408 17.4898 17.4903C17.0398 17.9478 16.4956 18.3019 15.895 18.528C15.3217 18.7503 14.6683 18.9015 13.7098 18.9465C12.7504 18.9888 12.4453 19.0005 10 19.0005C7.5547 19.0005 7.2496 18.9915 6.2902 18.9465C5.3317 18.9015 4.6792 18.7503 4.105 18.528C3.50409 18.3025 2.95977 17.9483 2.5102 17.4903C2.05247 17.0405 1.69834 16.4962 1.4725 15.8955C1.2493 15.3222 1.099 14.6688 1.054 13.7103C1.0117 12.7509 1 12.4458 1 10.0005C1 7.55519 1.009 7.25009 1.054 6.29069C1.099 5.33129 1.2493 4.67969 1.4725 4.10549C1.69771 3.50445 2.05192 2.96008 2.5102 2.51069C2.9599 2.0528 3.50419 1.69864 4.105 1.47299C4.6792 1.24979 5.3308 1.09949 6.2902 1.05449C7.2496 1.01219 7.5547 1.00049 10 1.00049ZM10 5.50049C8.80653 5.50049 7.66193 5.97459 6.81802 6.81851C5.97411 7.66242 5.5 8.80701 5.5 10.0005C5.5 11.194 5.97411 12.3386 6.81802 13.1825C7.66193 14.0264 8.80653 14.5005 10 14.5005C11.1935 14.5005 12.3381 14.0264 13.182 13.1825C14.0259 12.3386 14.5 11.194 14.5 10.0005C14.5 8.80701 14.0259 7.66242 13.182 6.81851C12.3381 5.97459 11.1935 5.50049 10 5.50049ZM15.85 5.27549C15.85 4.97712 15.7315 4.69097 15.5205 4.47999C15.3095 4.26901 15.0234 4.15049 14.725 4.15049C14.4266 4.15049 14.1405 4.26901 13.9295 4.47999C13.7185 4.69097 13.6 4.97712 13.6 5.27549C13.6 5.57386 13.7185 5.86 13.9295 6.07098C14.1405 6.28196 14.4266 6.40049 14.725 6.40049C15.0234 6.40049 15.3095 6.28196 15.5205 6.07098C15.7315 5.86 15.85 5.57386 15.85 5.27549ZM10 7.30049C10.7161 7.30049 11.4028 7.58495 11.9092 8.0913C12.4155 8.59765 12.7 9.2844 12.7 10.0005C12.7 10.7166 12.4155 11.4033 11.9092 11.9097C11.4028 12.416 10.7161 12.7005 10 12.7005C9.28392 12.7005 8.59716 12.416 8.09081 11.9097C7.58446 11.4033 7.3 10.7166 7.3 10.0005C7.3 9.2844 7.58446 8.59765 8.09081 8.0913C8.59716 7.58495 9.28392 7.30049 10 7.30049Z" fill="#5A7DF8"/>
</svg>
