<svg width="115" height="85" viewBox="0 0 115 85" fill="none" xmlns="http://www.w3.org/2000/svg"><path d="M36.38 85c-7.064 0-13.343-1.674-18.837-5.02-5.495-3.348-9.812-8.213-12.951-14.595C1.53 58.924 0 51.295 0 42.5c0-8.796 1.53-16.385 4.592-22.768 3.14-6.46 7.456-11.364 12.95-14.711C23.038 1.674 29.317 0 36.382 0c6.985 0 13.225 1.674 18.72 5.02 5.494 3.348 9.772 8.252 12.833 14.712 3.14 6.383 4.71 13.972 4.71 22.768 0 8.796-1.57 16.424-4.71 22.885-3.061 6.382-7.339 11.247-12.833 14.594C49.606 83.326 43.366 85 36.38 85zm0-18.915c3.925 0 7.026-1.868 9.302-5.604 2.354-3.814 3.532-9.808 3.532-17.981 0-8.173-1.178-14.128-3.532-17.864-2.276-3.814-5.377-5.721-9.301-5.721-4.004 0-7.182 1.907-9.537 5.721-2.276 3.736-3.414 9.69-3.414 17.864 0 8.173 1.138 14.167 3.414 17.98 2.355 3.737 5.533 5.605 9.537 5.605zM115 1.635v81.73H91.688V19.5H76.382V1.635H115z" fill="#5A7DF8"/></svg>