<svg width="20" height="20" viewBox="0 0 20 20" fill="none" xmlns="http://www.w3.org/2000/svg"><path d="M10 1c2.445 0 2.75.01 3.71.054.958.045 1.61.196 2.185.419a4.388 4.388 0 011.595 1.038c.457.45.812.994 1.038 1.594.222.574.373 1.227.418 2.186.042.96.054 1.264.054 3.71 0 2.445-.009 2.75-.054 3.71-.045.958-.196 1.61-.419 2.184a4.395 4.395 0 01-1.037 1.595c-.45.458-.994.812-1.595 1.038-.573.222-1.227.373-2.185.419-.96.042-1.265.053-3.71.053-2.445 0-2.75-.009-3.71-.053-.958-.046-1.61-.197-2.185-.419A4.402 4.402 0 012.51 17.49a4.414 4.414 0 01-1.037-1.594c-.224-.574-.374-1.227-.419-2.186C1.012 12.75 1 12.446 1 10c0-2.445.009-2.75.054-3.71.045-.959.195-1.61.418-2.185A4.392 4.392 0 012.51 2.511c.45-.458.994-.812 1.595-1.038.574-.223 1.226-.374 2.185-.419C7.25 1.012 7.555 1 10 1zm0 4.5a4.5 4.5 0 100 9 4.5 4.5 0 000-9zm5.85-.225a1.125 1.125 0 10-2.25 0 1.125 1.125 0 002.25 0zM10 7.3a2.7 2.7 0 110 5.4 2.7 2.7 0 010-5.4z" fill="#5A7DF8"/></svg>